<?xml version="1.0" standalone="no"?><!DOCTYPE svg PUBLIC "-//W3C//DTD SVG 1.1//EN" "http://www.w3.org/Graphics/SVG/1.1/DTD/svg11.dtd"><svg t="1708754898474" class="icon" viewBox="0 0 1024 1024" version="1.1" xmlns="http://www.w3.org/2000/svg" p-id="1675" xmlns:xlink="http://www.w3.org/1999/xlink" width="64" height="64"><path d="M448 416V200a32 32 0 0 0-64 0V416zM256 416v-32a32 32 0 0 0-64 0v32zM640 416V64a32 32 0 0 0-64 0v352zM832 416V288a32 32 0 0 0-64 0v128zM192 608v32a32 32 0 0 0 64 0v-32zM768 608v128a32 32 0 0 0 64 0v-128zM960 480H64a32 32 0 0 0 0 64h896a32 32 0 0 0 0-64zM384 608v264a32 32 0 0 0 64 0V608zM576 608v352a32 32 0 0 0 64 0V608z" fill="#2c2c2c" p-id="1676"></path></svg>