<svg width="196" height="165" viewBox="0 0 196 165" fill="none" xmlns="http://www.w3.org/2000/svg">
<rect width="196" height="165" rx="50" fill="white"/>
<path d="M113.938 67.1875H101.688V54.875H95.125V67.1875H83V73.8125H95.125V86H101.688V73.8125H113.938V67.1875ZM97.9375 135C93.7292 135 89.9167 134.375 86.5 133.125C83.0833 131.875 80.1667 130.167 77.75 128C75.375 125.833 73.5417 123.312 72.25 120.438C70.9583 117.521 70.3125 114.438 70.3125 111.188V73.1875C70.3125 69.9375 70.9583 66.875 72.25 64C73.5417 61.0833 75.375 58.5417 77.75 56.375C80.1667 54.2083 83.0833 52.5 86.5 51.25C89.9167 50 93.7292 49.375 97.9375 49.375C102.188 49.375 106 50 109.375 51.25C112.792 52.5 115.708 54.2083 118.125 56.375C120.542 58.5417 122.396 61.0833 123.688 64C124.979 66.875 125.625 69.9375 125.625 73.1875V111.188C125.625 114.438 124.979 117.521 123.688 120.438C122.396 123.312 120.542 125.833 118.125 128C115.708 130.167 112.792 131.875 109.375 133.125C106 134.375 102.188 135 97.9375 135Z" fill="#755349"/>
</svg>
